<svg width="16" height="17" viewBox="0 0 16 17" fill="none" xmlns="http://www.w3.org/2000/svg">
<path d="M5.67331 8.45226H3.14206V9.73798H5.67331V8.45226ZM5.67331 5.89088H3.14206V7.16655H5.67331V5.89088ZM13.2872 11.0237H9.86193V12.3094H13.2872V11.0237ZM13.2872 8.45226H6.53715V9.73798H13.2872V8.45226ZM13.2872 5.89088H6.53715V7.16655H13.2872V5.89088ZM14.6432 14.5293C14.6432 14.6398 14.5528 14.7302 14.4423 14.7302H1.98693C1.87644 14.7302 1.78603 14.6398 1.78603 14.5293V2.07391C1.78603 1.96342 1.87644 1.87302 1.98693 1.87302H2.30836L6.10523 4.44445L8.21461 2.72681L10.324 4.44445L14.1209 1.87302H14.4423C14.5528 1.87302 14.6432 1.96342 14.6432 2.07391V14.5293ZM6.05501 3.37972L3.83514 1.87302H7.91327L6.05501 3.37972ZM10.3742 3.37972L8.51595 1.87302H12.5941L10.3742 3.37972ZM15.9289 2.07391C15.9289 1.25025 15.2659 0.587306 14.4423 0.587306H1.98693C1.16327 0.587306 0.50032 1.25025 0.50032 2.07391V14.5293C0.50032 15.3529 1.16327 16.0159 1.98693 16.0159H14.4423C15.2659 16.0159 15.9289 15.3529 15.9289 14.5293V2.07391Z" fill="#C4C4C4"/>
</svg>
