<svg width="15" height="15" viewBox="0 0 15 15" fill="none" xmlns="http://www.w3.org/2000/svg">
<path d="M13.2851 3.02331H10.0351C9.73041 3.02331 9.33978 3.15613 9.0351 3.33582V0.773315C9.0351 0.359253 8.69916 0.0233145 8.2851 0.0233145H5.0351C4.62103 0.0233145 4.04291 0.265502 3.75385 0.554565L0.566345 3.74207C0.277283 4.03113 0.0350952 4.60925 0.0350952 5.02332V10.2733C0.0350952 10.6874 0.371033 11.0233 0.785095 11.0233H5.0351V13.2733C5.0351 13.6874 5.37103 14.0233 5.7851 14.0233H13.2851C13.6992 14.0233 14.0351 13.6874 14.0351 13.2733V3.77332C14.0351 3.35925 13.6992 3.02331 13.2851 3.02331ZM9.0351 4.68738V7.02332H6.69916L9.0351 4.68738ZM4.0351 1.68738V4.02332H1.69916L4.0351 1.68738ZM5.56635 6.74207C5.27728 7.03113 5.0351 7.60925 5.0351 8.02332V10.0233H1.0351V5.02332H4.2851C4.69916 5.02332 5.0351 4.68738 5.0351 4.27331V1.02331H8.0351V4.27331L5.56635 6.74207ZM13.0351 13.0233H6.0351V8.02332H9.2851C9.69916 8.02332 10.0351 7.68738 10.0351 7.27332V4.02332H13.0351V13.0233Z" fill="white"/>
</svg>
