<svg width="17" height="14" viewBox="0 0 17 14" fill="none" xmlns="http://www.w3.org/2000/svg">
<path d="M6.95918 12.7659C6.95918 12.3942 6.56744 12.4444 6.31632 12.4444H3.42347C2.53954 12.4444 1.81632 11.7212 1.81632 10.8373V3.76588C1.81632 2.88195 2.53954 2.15873 3.42347 2.15873H6.63775C7.08976 2.15873 6.95918 1.4757 6.95918 1.19445C6.95918 1.02369 6.80851 0.87302 6.63775 0.87302H3.42347C1.82637 0.87302 0.530609 2.16878 0.530609 3.76588V10.8373C0.530609 12.4344 1.82637 13.7302 3.42347 13.7302H6.63775C7.08976 13.7302 6.95918 13.0471 6.95918 12.7659ZM16.2806 7.30159C16.2806 7.13083 16.2103 6.97012 16.0898 6.84958L10.6255 1.3853C10.5049 1.26476 10.3442 1.19445 10.1735 1.19445C9.8219 1.19445 9.53061 1.48574 9.53061 1.83731V4.73016H5.03061C4.67905 4.73016 4.38775 5.02146 4.38775 5.37302V9.23016C4.38775 9.58173 4.67905 9.87302 5.03061 9.87302H9.53061V12.7659C9.53061 13.1174 9.8219 13.4087 10.1735 13.4087C10.3442 13.4087 10.5049 13.3384 10.6255 13.2179L16.0898 7.7536C16.2103 7.63307 16.2806 7.47235 16.2806 7.30159Z" fill="#C4C4C4"/>
</svg>
